<?xml version="1.0" encoding="UTF-8" standalone="no"?>
<svg width="512px" height="512px" viewBox="0 0 512 512" version="1.1" xmlns="http://www.w3.org/2000/svg" xmlns:xlink="http://www.w3.org/1999/xlink">
    <!-- Generator: Sketch 41.2 (35397) - http://www.bohemiancoding.com/sketch -->
    <title>symbol</title>
    <desc>Created with Sketch.</desc>
    <defs>
        <radialGradient cx="50%" cy="0%" fx="50%" fy="0%" r="76.327416%" id="radialGradient-1">
            <stop stop-color="#6F6F6F" offset="0%"></stop>
            <stop stop-color="#3C3C3C" offset="100%"></stop>
        </radialGradient>
    </defs>
    <g id="Symbols" stroke="none" stroke-width="1" fill="none" fill-rule="evenodd">
        <g id="symbol">
            <path d="M112,302.932654 C112,302.932654 117.114999,267.763317 138.48742,238.370113 C159.859841,208.97691 184.096487,198.22063 184.096487,198.22063 C184.096487,198.22063 184.89883,191.448667 186.779374,179.484205 C201.505297,85.5736083 232.851532,39.8264783 232.851532,39.8264783 L237.584654,76.6699811 L251.346745,24 L267.575658,74.1433146 L278.520941,55.0331835 C278.520941,55.0331835 314.308688,128.535459 323.606576,179.484205 C324.948019,188.858564 326.289462,198.22063 326.289462,198.22063 C326.289462,198.22063 353.865037,212.682175 371.89853,238.370113 C389.932023,264.058052 399.727393,302.932654 399.727393,302.932654 L366.532757,299.932654 C366.532757,299.932654 360.743696,276.044706 349.093996,258.444855 C337.444296,240.845004 319.582247,229.001901 319.582247,229.001901 C319.582247,229.001901 308.757278,250.211701 298.119156,263.798119 C287.481034,277.384538 265.415346,292.826478 253,292.826478 C240.584654,292.826478 224.543391,278.000784 212.266794,263.798119 C199.990197,249.595455 192.145146,229.001901 192.145146,229.001901 C192.145146,229.001901 174.557621,240.557668 162.633397,258.444855 C150.709173,276.332042 145.194636,299.932654 145.194636,299.932654 L112,302.932654 Z" id="mohawk" fill="#FF00FF"></path>
            <g id="shades" transform="translate(62.000000, 303.000000)">
                <path d="M9.5086166,8.18061199 C115.990999,-7.02498651 134.972096,12.042834 193.672313,13.1984595 C252.37253,12.042834 271.353627,-10.0661062 377.83601,8.18061199 C384.487237,9.33623748 385.146085,9.60993825 386.275538,15.9962896 C386.746144,18.8245309 387.059881,30.7761314 387.154002,33.6043727 C387.373618,38.8350986 386.306912,39.5345561 380.942007,42.301975 C376.267324,44.7044596 374.102538,45.4039171 374.102538,54.953033 C374.102538,117.904211 344.611247,137.367377 304.986248,138.857526 C263.10234,140.438908 229.030488,117.356809 214.849569,81.9277647 C194.770393,31.8709345 191.633022,31.8405233 171.553845,81.9277647 C157.404301,117.356809 124.210912,140.469319 82.3583787,138.887937 C42.7333789,137.367377 13.2420885,115.653782 13.2420885,54.9834442 C13.2420885,45.4343283 11.0773023,44.7348708 6.402619,42.3323862 C1.03771404,39.5345561 -0.0603659234,38.8350986 0.190623782,33.6043727 C0.316118635,30.7761314 0.629855767,18.8245309 1.06908775,15.9962896 C2.19854143,9.60993825 2.8573894,12.346946 9.5086166,8.18061199 L9.5086166,8.18061199 Z" id="Shape" stroke="#F89AF8" fill="#2F2F2F"></path>
                <path d="M355.485511,53.7669963 C354.63842,90.2604327 343.092894,117.843388 303.311026,119.242303 C249.505107,121.158209 236.2654,80.4680273 225.629712,50.482587 C221.864866,39.8690793 224.343389,38.439753 241.661679,30.9281874 C255.215123,25.0588263 275.2943,18.3987742 292.989074,17.7297279 C307.671972,17.1823263 322.543112,18.5812414 337.069141,21.4703051 C352.567755,24.5722472 356.018864,30.0766738 355.485511,53.7669963 Z" id="reflection" fill="#DFDFDF"></path>
                <path d="M353.567207,62.2512229 C339.948136,101.239781 317.515267,119.042081 285.057995,119.042081 C252.600723,119.042081 234.114636,102.816634 230.467342,70.0652284 C234.114636,47.1614894 263.218549,40.1087912 287.972409,40.1087912 C312.726268,40.07838 341.675689,47.2421642 353.567207,62.2512229 Z" id="lens" fill="url(#radialGradient-1)" transform="translate(292.017274, 79.575388) scale(-1, 1) translate(-292.017274, -79.575388) "></path>
                <path d="M30.7172467,53.7669963 C31.564337,90.2604327 43.1098634,117.843388 82.8917318,119.242303 C136.69765,121.158209 149.937357,80.4680273 160.573046,50.482587 C164.337891,39.8690793 161.859368,38.439753 144.541078,30.9281874 C130.987634,25.0588263 110.908458,18.3987742 93.2136834,17.7297279 C78.5307856,17.1823263 63.6596456,18.5812414 49.1336164,21.4703051 C33.6350021,24.5722472 30.1838936,30.0766738 30.7172467,53.7669963 Z" id="reflection" fill="#DFDFDF"></path>
                <path d="M156.00228,61.6654349 C141.821364,102.075652 119.288613,118.965386 86.8313412,118.965386 C54.3740691,118.965386 37.2544099,103.244784 32.7592862,70.7039427 C36.4065807,47.8002036 64.9918951,40.0320964 89.7457548,40.0320964 C114.499614,40.0016852 144.110762,46.6563762 156.00228,61.6654349 Z" id="lens" fill="url(#radialGradient-1)"></path>
            </g>
        </g>
    </g>
</svg>