<svg version="1" xmlns="http://www.w3.org/2000/svg" width="682.667" height="682.667" viewBox="0 0 512.000000 512.000000"><path d="M250.7 26.7c-.3 1-3.1 11.7-6.2 23.8-6.7 25.8-6.4 24.9-6.9 24.4-.2-.2-.7-2.9-1-5.9-1-8.1-1.6-12.7-2.6-20-.5-3.6-1-7.1-1-7.9C233 38 221.8 59 215.5 74c-9.7 23.1-23.1 69.1-26 89.5-.3 2.2-.8 4.5-1 5.2-.2.6-.7 3.8-1.1 7-.3 3.2-.8 6.1-1 6.4-.2.3-.6 3.4-1 7-.8 8-1.6 9.4-6.2 11.8-9.5 4.9-29.9 22.8-37.2 32.9-1.4 1.9-3.4 4.6-4.6 6-4.8 6.2-13.4 23-17.7 34.7-2.4 6.4-7.7 25.5-7.7 27.7 0 .5 2.1.7 4.8.4 5.5-.6 14.5-1.5 22-2.1 6-.5 7.2-1 7.2-3.1 0-2.2 5.2-16.7 9-24.8 6.5-14.3 18.5-29.2 32.1-40l4.7-3.7 4.5 9.4c6.7 13.6 13.7 23.6 24.3 34.2 8.3 8.5 19.5 16.9 24.8 18.9 7.2 2.6 15.4 1 25.8-5.1 17.9-10.4 29-22.6 43.1-47.7l5.5-9.7 5.3 4.2c7.7 6 18.1 17.1 23.9 25.5 2.8 4 5 7.5 5 7.9 0 .4 1.5 3.9 3.4 7.8 1.9 4 4.6 11.1 6.1 16 1.5 4.8 3.1 8.9 3.4 9.2.9.5 7.6 1.3 16.1 2 3.6.3 8.8.7 11.7 1l5.2.5-1.5-5.3c-6.3-21.5-18.7-48.6-28.1-61.2-3.3-4.4-8.9-10.9-12.4-14.3-6.2-6.2-23.9-20.2-25.6-20.2-.4-.1-2-1.1-3.5-2.3-2.3-1.9-2.8-3.5-4.2-13.2-.9-6.1-2.8-15.5-4.2-21-1.4-5.5-2.7-10.7-2.9-11.5-1.4-6.7-15.9-46.9-21-58.5-.7-1.7-3.4-7.7-5.8-13.5-8.1-18.7-11.7-26.1-12.7-25.5-.5.3-3.1 4.5-5.7 9.2l-4.7 8.7-3.3-10.4c-6-18.9-12.5-38.5-12.8-38.8-.2-.2-.6.5-.8 1.5zM354.7 303.6c-.1.1-4.5.5-9.7.8-8.4.6-25.8 2.9-31.4 4.1-1.2.2-3.4.6-5.1.9-1.6.2-5.7.9-9 1.5-31 5.5-51.8 6-80 1.6-1.1-.1-4.2-.6-7-1-2.7-.3-9-1.3-14-2.1-22.2-3.4-29.5-3.9-57-3.9-26.6 0-33.9.5-62 4.1-8.2 1-14.7 3.2-16 5.4-.9 1.4-1.4 7.4-1.6 18-.1 8.1 0 8.5 2.7 10.7 1.6 1.3 3.4 2.3 4 2.3.6 0 2.1 1.1 3.3 2.4 2.4 2.5 2.4 2.7 3.6 21.6 1.4 22.7 7.5 39.4 19 51.8 13.1 14 29.7 20.3 54 20.4 29 .1 53.9-11.6 71.8-33.6 6.2-7.7 10.2-15 17.8-33.1 6.1-14.8 11-23.7 14.2-26.4 2.8-2.2 6.2-.5 9.6 4.8 2.9 4.5 5.3 9.6 15.6 33.4 14.8 34.2 47 54.9 85.5 54.8 30.8 0 51.8-10.7 63-32.2 4-7.7 8.3-22.1 9.4-31.4.4-2.8.8-9.8 1.1-15.8.2-5.9.9-11.6 1.5-12.6.5-1.1 2.9-3 5.2-4.3 6-3.3 6.8-5.5 6.2-16.8-.5-12.3-1.1-14.8-3.7-16.5-2.2-1.4-25.5-5.2-42.7-7-12-1.3-47.4-2.6-48.3-1.9z"/></svg>